<?xml version="1.0"?>
<svg xmlns="http://www.w3.org/2000/svg" viewBox="0 0 512 512" width="512" height="512"><g id="outline"><path d="M502.459,366.83l-18.924-25.9-62.574-85.626a239.388,239.388,0,0,0,73.768-149.489A8,8,0,0,0,486.771,97H316.662a8,8,0,0,0-7.33,4.8,32,32,0,0,1-37.925,18.028,8,8,0,0,0-9.594,4.8,32,32,0,0,1-59.2,1.059,7.993,7.993,0,0,0-7.988-4.8c-.981.079-1.84.118-2.627.118a32.017,32.017,0,0,1-29.332-19.2,8,8,0,0,0-7.33-4.8H25.229a8,8,0,0,0-7.958,8.818A240.032,240.032,0,0,0,256.015,321c6.085,0,12.186-.236,18.259-.694l-15.218,20.825-18.926,25.9a8,8,0,0,0,2.158,11.466,240.091,240.091,0,0,0,258.024-.207,8,8,0,0,0,2.147-11.459Zm-37.033-23.56a192.115,192.115,0,0,1-188.251.184l94.192-128.9ZM461.525,113h16.2a223.427,223.427,0,0,1-66.291,129.275l-9.536-13.05A208.256,208.256,0,0,0,461.525,113Zm-311.094,0a48.016,48.016,0,0,0,39.98,23.974,48.014,48.014,0,0,0,83.4-.376A47.985,47.985,0,0,0,321.569,113H445.33a192.25,192.25,0,0,1-52.981,103.153L377.826,196.28a8,8,0,0,0-12.918,0L315.786,263.5A191.711,191.711,0,0,1,256,273c-94.116,0-173.966-68.168-189.335-160ZM255.986,305A224.052,224.052,0,0,1,34.271,113h16.2C66.023,213.828,153.14,289,256,289a208.651,208.651,0,0,0,44.674-4.821l-13.652,18.683A227,227,0,0,1,255.986,305Zm115.138,95a223.309,223.309,0,0,1-112.95-30.544l9.5-12.993a208.153,208.153,0,0,0,207.261-.187l9.494,12.991A223.315,223.315,0,0,1,371.124,400Z"/><path d="M256,215.96a8,8,0,0,0,8-8v-16a8,8,0,0,0-16,0v16A8,8,0,0,0,256,215.96Z"/><path d="M174.4,196.76a8,8,0,0,0,11.2-1.6l9.6-12.8a8,8,0,0,0-12.8-9.6l-9.6,12.8A8,8,0,0,0,174.4,196.76Z"/><path d="M141.252,174.543a8,8,0,0,0,11.193,1.644l12.837-9.552a8,8,0,0,0-9.551-12.837L142.9,163.35A8,8,0,0,0,141.252,174.543Z"/><path d="M127.283,152.215a7.969,7.969,0,0,0,3.6-.861l14.282-7.213a8,8,0,0,0-7.213-14.282l-14.282,7.213a8,8,0,0,0,3.612,15.143Z"/><path d="M214.366,211.61a7.994,7.994,0,0,0,10.241-4.808l5.434-15.049a8,8,0,0,0-15.049-5.434l-5.433,15.05A8,8,0,0,0,214.366,211.61Z"/><path d="M326.677,195.16a8,8,0,0,0,12.8-9.6l-9.6-12.8a8,8,0,0,0-12.8,9.6Z"/><path d="M347,166.635l12.836,9.551a8,8,0,0,0,9.551-12.836L356.546,153.8A8,8,0,0,0,347,166.635Z"/><path d="M367.111,144.142l14.283,7.212a8,8,0,0,0,7.212-14.282l-14.282-7.213a8,8,0,0,0-7.213,14.283Z"/><path d="M287.669,206.8a8,8,0,0,0,15.049-5.433l-5.433-15.049a8,8,0,1,0-15.049,5.432Z"/><path d="M363.138,286.96v16a8,8,0,0,0,16,0v-16a8,8,0,0,0-16,0Z"/><path d="M340.371,276.511a8,8,0,0,0-10.241,4.809L324.7,296.369a8,8,0,1,0,15.049,5.433l5.433-15.05A8,8,0,0,0,340.371,276.511Z"/><path d="M402.808,301.8a8,8,0,1,0,15.048-5.433l-5.433-15.05a8,8,0,0,0-15.049,5.434Z"/></g></svg>
