<svg id="Layer_1" enable-background="new 0 0 512 512" height="512" viewBox="0 0 512 512" width="512" xmlns="http://www.w3.org/2000/svg"><g><circle cx="80" cy="366.02" r="10"/><circle cx="120" cy="366.02" r="10"/><circle cx="100" cy="336.02" r="10"/><path d="m502 286.02h-202.35c-3.194-48.632-29.514-92.16-70.784-117.612 1.688-1.41 3.349-2.921 4.975-4.547 34.739-34.74 18.507-85.032 17.799-87.156-.019-.056-.045-.107-.065-.162-.093-.263-.196-.522-.311-.778-.041-.091-.082-.181-.125-.27-.12-.247-.253-.489-.395-.728-.048-.081-.094-.164-.144-.244-.154-.244-.323-.479-.5-.712-.048-.063-.091-.128-.14-.19-.228-.285-.471-.562-.735-.826-.263-.263-.54-.506-.824-.733-.065-.053-.136-.098-.203-.149-.228-.173-.458-.339-.697-.49-.085-.054-.173-.102-.26-.153-.232-.138-.468-.267-.708-.384-.095-.046-.191-.09-.288-.133-.248-.111-.499-.211-.754-.302-.06-.021-.116-.05-.176-.07-2.125-.71-52.416-16.94-87.156 17.799-18.288 18.289-22.448 40.884-22.185 58.497-35.468 3.281-68.348 18.934-93.439 44.696-27.43 28.162-42.535 65.327-42.535 104.647 0 82.71 67.29 150 150 150 39.793 0 78.011-15.917 106.048-43.921 27.157 27.124 64.629 43.921 105.952 43.921 82.71 0 150-67.29 150-150 0-5.522-4.478-10-10-10zm-196.144 80.286 46.144-46.143v65.299c-17.333-1.925-33.195-8.791-46.144-19.156zm-33.297-60.286h65.299l-46.144 46.144c-10.365-12.95-17.231-28.811-19.155-46.144zm99.441 14.143 46.144 46.144c-12.949 10.365-28.811 17.23-46.144 19.155zm60.286 32.001-46.144-46.144h65.299c-1.924 17.333-8.79 33.194-19.155 46.144zm-212.588-202.446c-15.099 15.098-35.113 17.041-49.267 16.013l65.278-65.278c1.029 14.159-.915 34.17-16.011 49.265zm-47.396-47.396c15.098-15.098 35.113-17.042 49.267-16.013l-65.278 65.278c-1.029-14.159.915-34.169 16.011-49.265zm-22.302 323.698c-71.683 0-130-58.317-130-130 0-68.136 51.258-123.509 118.127-129.462.721 3.556 1.446 6.191 1.873 7.623v31.221c-9.175-1.108-17.886-3.751-24.833-7.944-4.728-2.854-10.875-1.335-13.729 3.395-2.854 4.729-1.334 10.875 3.395 13.729 12.663 7.643 28.915 11.465 45.167 11.465s32.504-3.822 45.167-11.465c4.729-2.854 6.248-9 3.395-13.729s-9-6.251-13.729-3.395c-6.947 4.192-15.658 6.836-24.833 7.944v-20.691c4.75.753 10.511 1.349 16.873 1.349 9.822 0 21.065-1.42 32.193-5.86 40.677 20.772 67.12 60.679 70.543 105.82h-57.609c-5.522 0-10 4.478-10 10 0 34.187 11.504 65.732 30.833 90.987-24.381 24.853-57.904 39.013-92.833 39.013zm212 0c-68.317 0-124.496-52.973-129.619-120h20.079c2.35 25.955 13.752 49.333 31.018 66.949.23.288.474.567.74.833s.545.51.832.739c19.852 19.459 47.022 31.479 76.95 31.479s57.098-12.02 76.95-31.479c.287-.229.566-.474.832-.739.266-.266.51-.545.74-.833 17.266-17.616 28.668-40.995 31.018-66.949h20.079c-5.123 67.027-61.302 120-129.619 120z"/></g></svg>