<svg id="Capa_1" enable-background="new 0 0 511.208 511.208" height="512" viewBox="0 0 511.208 511.208" width="512" xmlns="http://www.w3.org/2000/svg"><g><g><path d="m414.647 310.577c-4.142 0-7.5 3.358-7.5 7.5v13.384c0 4.142 3.358 7.5 7.5 7.5s7.5-3.358 7.5-7.5v-13.384c0-4.142-3.358-7.5-7.5-7.5z"/><path d="m348.53 310.577c-4.142 0-7.5 3.358-7.5 7.5v13.384c0 4.142 3.358 7.5 7.5 7.5s7.5-3.358 7.5-7.5v-13.384c0-4.142-3.358-7.5-7.5-7.5z"/><path d="m381.589 258.622c-4.142 0-7.5 3.358-7.5 7.5v13.384c0 4.142 3.358 7.5 7.5 7.5s7.5-3.358 7.5-7.5v-13.384c0-4.142-3.358-7.5-7.5-7.5z"/><path d="m452.201 258.622c-4.142 0-7.5 3.358-7.5 7.5v13.384c0 4.142 3.358 7.5 7.5 7.5s7.5-3.358 7.5-7.5v-13.384c0-4.142-3.358-7.5-7.5-7.5z"/><path d="m381.589 355.695c-4.142 0-7.5 3.358-7.5 7.5v13.384c0 4.142 3.358 7.5 7.5 7.5s7.5-3.358 7.5-7.5v-13.384c0-4.142-3.358-7.5-7.5-7.5z"/><path d="m473.732 193.536c1.593-1.544 3.164-3.126 4.687-4.792 12.942-14.161 20.823-31.129 22.791-49.069.528-4.815-1.839-9.492-6.029-11.916-15.42-8.922-33.509-12.646-52.316-10.767-5.2.519-10.212 1.367-14.99 2.525-.653-5.682-1.8-11.412-3.451-17.135-1.148-3.98-5.303-6.276-9.285-5.128-3.98 1.148-6.276 5.305-5.128 9.285 1.724 5.979 2.81 11.942 3.268 17.808-4.597 1.977-8.858 4.294-12.701 6.947-7.154 4.938-13.514 10.526-18.993 16.612-5.476-6.087-11.831-11.675-18.983-16.612-3.829-2.643-8.073-4.953-12.651-6.925.767-7.842 2.972-16.199 6.547-24.685 5.854-13.896 15.136-25.221 26.906-32.858 4.532 3.342 8.667 7.293 12.312 11.766 2.616 3.211 7.341 3.693 10.552 1.076 3.211-2.616 3.693-7.341 1.076-10.552-4.922-6.041-10.595-11.312-16.859-15.667-3.977-2.765-9.216-2.921-13.349-.399-15.206 9.282-27.122 23.395-34.46 40.811-3.66 8.688-6.088 17.351-7.242 25.691-4.817-1.174-9.871-2.034-15.118-2.558-18.803-1.878-36.897 1.846-52.317 10.767-4.19 2.424-6.557 7.102-6.029 11.916 1.967 17.94 9.848 34.908 22.791 49.069 1.525 1.669 3.089 3.274 4.685 4.822-6.889 6.974-13.003 14.714-18.182 23.094-23.1-18.007-50.943-27.093-78.831-27.262.032-2.216-.001-4.45-.103-6.701-.862-19.165-7.287-36.736-18.581-50.813-3.031-3.778-8.011-5.414-12.689-4.163-17.212 4.595-32.637 14.754-44.607 29.38-3.309 4.042-6.253 8.185-8.812 12.381-5.921-4.697-12.486-8.826-19.646-12.314-17.248-8.402-35.754-11.155-53.515-7.961-4.766.857-8.582 4.451-9.721 9.157-4.189 17.315-2.637 35.72 4.491 53.224 3.556 8.736 7.978 16.564 13.063 23.277-4.242 2.578-8.43 5.547-12.516 8.891-14.625 11.97-24.785 27.395-29.38 44.607-1.249 4.677.384 9.657 4.163 12.69 14.077 11.294 31.648 17.719 50.813 18.581 1.713.077 3.415.116 5.107.116.514 0 1.023-.017 1.535-.025.2 34.333 13.657 66.58 37.955 90.879 5.657 5.657 11.624 10.568 18.239 15.014 3.439 2.311 8.098 1.396 10.408-2.042s1.396-8.098-2.042-10.408c-5.802-3.898-11.035-8.207-15.999-13.17-44.69-44.69-44.69-117.407 0-162.097 44.689-44.689 117.405-44.691 162.097 0 10.97 10.97 23.658 27.553 34.591 67.369 2.13 7.76 3.964 15.576 5.452 23.23 6.592 33.93 6.597 64.295.013 90.253-2.662 10.49-10.85 18.649-21.369 21.292-49.082 12.332-102.877-1.398-130.576-10.68-1.475-.494-2.934-1.001-4.378-1.521-3.896-1.403-8.194.618-9.598 4.515s.618 8.194 4.515 9.598c1.549.558 3.113 1.101 4.695 1.631 20.848 6.986 55.756 16.338 93.208 16.338 15.101 0 30.622-1.522 45.79-5.333 14.024-3.524 25.294-13.555 30.504-26.767 9.951 9.599 21.014 18.482 33.246 25.802 7.045 4.215 14.943 6.322 22.841 6.322 7.85 0 15.7-2.083 22.701-6.251 24.924-14.838 47.995-37.827 68.571-68.327 4.572-6.777 9.004-13.927 13.172-21.25 12.432-21.844 25.141-48.373 25.141-79.517-.004-35.466-14.324-67.644-37.48-91.071zm-410.931 111.162c-2.236.06-4.485.053-6.738-.048-15.31-.689-29.327-5.583-40.662-14.175 3.991-13.452 12.223-25.56 23.893-35.111 10.872-8.897 22.358-14.653 33.216-16.643 6.227-1.141 12.44-1.624 18.512-1.501-15.794 19.373-25.522 42.648-28.221 67.478zm33.86-107.584c-1.568 8.554-2.112 17.004-1.676 25.183-8.178-.437-16.626.103-25.178 1.67-4.575.839-9.208 2.206-13.838 4.048-5.004-6.087-9.356-13.553-12.829-22.083-5.687-13.967-7.131-28.538-4.209-42.26 14.063-2.131 28.714.269 42.492 6.981 7.065 3.441 13.63 7.728 19.307 12.569-1.853 4.648-3.228 9.299-4.069 13.892zm80.73-6.936c-24.127 2.645-47.644 12.032-67.471 28.161-.126-6.075.353-12.291 1.495-18.52 1.99-10.859 7.745-22.345 16.643-33.217 9.551-11.67 21.658-19.902 35.11-23.893 8.593 11.335 13.486 25.352 14.175 40.662.102 2.276.111 4.548.048 6.807zm231.707-46.541c9.085-6.271 21.276-10.324 35.255-11.719 15.005-1.499 29.387 1.242 41.722 7.932-1.939 14.091-8.391 27.463-18.729 38.775-1.539 1.684-3.15 3.284-4.793 4.837-18.927-15.182-42.184-25.176-67.599-27.792 4.201-4.384 8.934-8.437 14.144-12.033zm-131.996-3.787c12.333-6.689 26.714-9.429 41.722-7.932 13.979 1.395 26.17 5.448 35.256 11.719 5.214 3.599 9.958 7.652 14.171 12.035-25.421 2.612-48.686 12.599-67.615 27.786-1.647-1.553-3.265-3.147-4.805-4.833-10.339-11.313-16.79-24.684-18.729-38.775zm195.929 216.851c-3.981 6.994-8.21 13.817-12.571 20.281-19.331 28.654-40.799 50.128-63.81 63.827-9.298 5.536-20.858 5.516-30.167-.054-13.761-8.235-25.998-18.659-36.72-29.884 4.53-25.363 3.768-53.965-2.307-85.233-1.56-8.025-3.481-16.214-5.711-24.34-6.655-24.236-16.427-51.981-38.449-74.004-.195-.195-.395-.383-.591-.576 19.928-33.913 56.785-56.733 98.883-56.733 63.202 0 114.62 51.418 114.62 114.619 0 15.514-2.754 36.212-23.177 72.097z"/><path d="m243.989 313.939c-2.929-2.929-7.678-2.929-10.606 0-2.929 2.929-2.929 7.678 0 10.606l9.464 9.464c1.464 1.464 3.384 2.197 5.303 2.197s3.839-.732 5.303-2.197c2.929-2.929 2.929-7.678 0-10.606z"/><path d="m186.631 360.69c-2.929 2.929-2.929 7.678 0 10.606l9.464 9.464c1.464 1.465 3.384 2.197 5.303 2.197s3.839-.732 5.303-2.197c2.929-2.929 2.929-7.678 0-10.606l-9.464-9.464c-2.928-2.929-7.677-2.928-10.606 0z"/><path d="m183.876 300.577c-2.929-2.929-7.678-2.929-10.606 0-2.929 2.929-2.929 7.678 0 10.606l9.464 9.464c1.464 1.464 3.384 2.197 5.303 2.197s3.839-.732 5.303-2.197c2.929-2.929 2.929-7.678 0-10.606z"/><path d="m233.806 250.646c-2.929-2.93-7.678-2.929-10.606 0-2.929 2.929-2.929 7.678 0 10.606l9.464 9.464c1.464 1.465 3.384 2.197 5.303 2.197s3.839-.732 5.303-2.197c2.929-2.929 2.929-7.678 0-10.606z"/><path d="m133.945 350.507c-2.929-2.929-7.678-2.929-10.606 0-2.929 2.929-2.929 7.678 0 10.606l9.464 9.464c1.464 1.464 3.384 2.197 5.303 2.197s3.839-.732 5.303-2.197c2.929-2.929 2.929-7.678 0-10.606z"/><path d="m241.911 369.218c-2.929 2.929-2.929 7.677 0 10.606l9.464 9.464c1.464 1.465 3.384 2.197 5.303 2.197s3.839-.732 5.303-2.197c2.929-2.929 2.929-7.677 0-10.606l-9.464-9.464c-2.928-2.93-7.677-2.929-10.606 0z"/></g></g></svg>